<?xml version="1.0" standalone="no"?>
<!DOCTYPE svg PUBLIC "-//W3C//DTD SVG 1.1//EN" "http://www.w3.org/Graphics/SVG/1.1/DTD/svg11.dtd" >
<svg xmlns="http://www.w3.org/2000/svg" xmlns:xlink="http://www.w3.org/1999/xlink" version="1.1">
<metadata></metadata>
<defs>
<font id="amazon_emberregular" horiz-adv-x="1200" >
<font-face units-per-em="2048" ascent="1638" descent="-410" />
<missing-glyph horiz-adv-x="536" />
<glyph unicode="&#xfb01;" horiz-adv-x="1271" d="M37 879v131l192 24v168q0 342 328 342q115 0 205 -37v-143q-104 16 -160 16q-94 0 -132 -35.5t-38 -117.5v-189h680v-1038h-203v879h-477v-879h-203v879h-192zM885 1346q0 55 33.5 88.5t93.5 33.5q59 0 93 -33.5t34 -88.5t-34 -89t-93 -34t-93 33.5t-34 89.5z" />
<glyph unicode="&#xfb02;" horiz-adv-x="1333" d="M37 879v131l192 24v168q0 342 328 342q115 0 205 -37v-143q-104 16 -160 16q-94 0 -132 -35.5t-38 -117.5v-189h330v-159h-330v-879h-203v879h-192zM901 231v1285h203v-1272q0 -47 19.5 -68.5t64.5 -21.5q41 0 84 6v-146q-68 -25 -148 -24q-109 0 -166 62.5t-57 178.5z " />
<glyph unicode="&#xfb03;" horiz-adv-x="1951" d="M37 879v131l192 24v168q0 342 328 342q115 0 205 -37v-143q-104 16 -160 16q-94 0 -132 -35.5t-38 -117.5v-189h477v164q0 342 328 342q115 0 205 -37v-143q-104 16 -160 16q-94 0 -132 -35.5t-38 -117.5v-189h680v-1038h-203v879h-477v-879h-203v879h-477v-879h-203v879 h-192zM1565 1346q0 55 33.5 88.5t93.5 33.5q59 0 93 -33.5t34 -88.5t-34 -89t-93 -34t-93 33.5t-34 89.5z" />
<glyph unicode="&#xfb04;" horiz-adv-x="2013" d="M37 879v131l192 24v168q0 342 328 342q115 0 205 -37v-143q-104 16 -160 16q-94 0 -132 -35.5t-38 -117.5v-189h477v164q0 342 328 342q115 0 205 -37v-143q-104 16 -160 16q-94 0 -132 -35.5t-38 -117.5v-189h330v-159h-330v-879h-203v879h-477v-879h-203v879h-192z M1581 231v1285h203v-1272q0 -47 19.5 -68.5t64.5 -21.5q41 0 84 6v-146q-68 -25 -148 -24q-109 0 -166 62.5t-57 178.5z" />
<glyph unicode="&#xd;" horiz-adv-x="536" />
<glyph horiz-adv-x="0" />
<glyph horiz-adv-x="0" />
<glyph unicode=" "  horiz-adv-x="536" />
<glyph unicode="&#x09;" horiz-adv-x="536" />
<glyph unicode="&#xa0;" horiz-adv-x="536" />
<glyph unicode="!" horiz-adv-x="528" d="M131 115q0 59 37 97t96 38t96 -38t37 -97t-37 -97t-96 -38t-96 37.5t-37 97.5zM152 1419q53 27 112 27t113 -27l-29 -989h-168z" />
<glyph unicode="&#x22;" horiz-adv-x="763" d="M117 1417q47 25 98 25q55 0 100 -25l-28 -497h-142zM449 1417q47 25 98 25q55 0 100 -25l-28 -497h-142z" />
<glyph unicode="#" d="M45 377v143h213l59 387h-211v144h234l59 368h156l-59 -368h313l59 368h156l-59 -368h190v-144h-213l-59 -387h211v-143h-234l-59 -377h-156l60 377h-314l-59 -377h-156l60 377h-191zM414 520h313l59 387h-313z" />
<glyph unicode="$" d="M137 1032q0 106 48 193.5t138.5 139.5t211.5 60v248h127v-250q168 -16 315 -106v-162q-168 94 -315 111v-486l88 -32q162 -57 238.5 -142.5t76.5 -208.5q0 -172 -108.5 -282.5t-294.5 -130.5v-250h-127v250q-205 12 -388 120v164q121 -61 213.5 -91t174.5 -36v502l-86 33 q-160 59 -236 146t-76 210zM315 1038q0 -78 51.5 -130t168.5 -93v453q-104 -8 -162 -68t-58 -162zM662 143q104 12 163.5 77t59.5 167q0 78 -51.5 129t-171.5 94v-467z" />
<glyph unicode="%" horiz-adv-x="1925" d="M82 1018q0 199 88 308.5t250 109.5q160 0 249 -108.5t89 -305.5q0 -199 -88 -308t-250 -109q-160 0 -249 108.5t-89 304.5zM252 1022q0 -147 41 -215.5t127 -68.5t127 68.5t41 211.5q0 147 -41 216t-127 69t-127 -68.5t-41 -212.5zM539 0l682 1419h166l-682 -1419h-166z M1167 397q0 199 88 308.5t250 109.5q160 0 249 -108.5t89 -305.5q0 -199 -88 -308t-250 -109q-160 0 -249 108.5t-89 304.5zM1337 401q0 -147 41 -215.5t127 -68.5t127 68.5t41 211.5q0 147 -41 216t-127 69t-127 -68.5t-41 -212.5z" />
<glyph unicode="&#x26;" horiz-adv-x="1503" d="M76 358q0 137 80 245t227 171q-104 119 -141 190.5t-37 159.5q0 147 109.5 236.5t289.5 89.5q172 0 278.5 -81t106.5 -216q0 -111 -77.5 -210t-223.5 -173l-51 -27l356 -403q104 152 105 383v63h178v-79q0 -143 -43 -269.5t-125 -224.5q39 -37 83 -52.5t112 -15.5 q51 0 118 11v-142q-33 -12 -83 -20t-95 -8q-70 0 -132 26.5t-126 83.5q-184 -129 -426 -129q-225 0 -354 104.5t-129 286.5zM268 375q0 -119 78 -182.5t223 -63.5q174 0 299 84l-395 457q-205 -106 -205 -295zM393 1120q0 -63 31 -116.5t125 -159.5l74 39q88 47 136 113.5 t48 140.5t-55.5 120t-143.5 46q-98 0 -156.5 -49.5t-58.5 -133.5z" />
<glyph unicode="'" horiz-adv-x="432" d="M117 1417q47 25 98 25q55 0 100 -25l-28 -497h-142z" />
<glyph unicode="(" horiz-adv-x="638" d="M125 625q0 244 71.5 482.5t206.5 436.5h195q-258 -403 -258 -919t258 -920h-195q-135 199 -206.5 437.5t-71.5 482.5z" />
<glyph unicode=")" horiz-adv-x="638" d="M41 -295q258 403 258 920q0 516 -258 919h195q135 -199 206.5 -437.5t71.5 -481.5q0 -244 -71.5 -482.5t-206.5 -437.5h-195z" />
<glyph unicode="*" horiz-adv-x="811" d="M74 1128q0 70 53 123l221 -108l-29 264q41 18 87 18q47 0 86 -18l-29 -264l221 108q53 -53 53 -123q0 -12 -4 -32l-235 -56l184 -206q-20 -41 -55 -67t-78 -32l-143 248l-144 -248q-43 6 -77.5 32t-55.5 67l184 206l-235 56q-4 20 -4 32z" />
<glyph unicode="+" d="M137 631v164h375v391h176v-391h375v-164h-375v-391h-176v391h-375z" />
<glyph unicode="," horiz-adv-x="507" d="M61 -313l105 551h65q70 0 99.5 -17.5t29.5 -58.5q0 -33 -28 -115l-131 -360h-140z" />
<glyph unicode="-" horiz-adv-x="798" d="M94 444v172h611v-172h-611z" />
<glyph unicode="." horiz-adv-x="507" d="M121 115q0 59 37 97t96 38t96 -38t37 -97t-37 -97t-96 -38t-96 37.5t-37 97.5z" />
<glyph unicode="/" horiz-adv-x="966" d="M33 -295l696 1839h205l-696 -1839h-205z" />
<glyph unicode="0" d="M78 711q0 356 134 547.5t388 191.5q252 0 387 -190.5t135 -548.5t-134 -550t-388 -192q-252 0 -387 191.5t-135 550.5zM287 711q0 -295 75.5 -432.5t237.5 -137.5t237.5 136.5t75.5 433.5q0 293 -75.5 430t-237.5 137t-237.5 -137t-75.5 -430z" />
<glyph unicode="1" d="M211 1063v164l410 192h190v-1419h-205v1217z" />
<glyph unicode="2" d="M137 0v160q295 299 431.5 457.5t187.5 255t51 182.5q0 102 -62.5 160.5t-169.5 58.5q-182 0 -399 -154v174q100 80 203.5 118t226.5 38q186 0 300 -104.5t114 -276.5q0 -115 -61.5 -232.5t-199.5 -273t-386 -393.5h712v-170h-948z" />
<glyph unicode="3" d="M129 51v164q223 -74 381 -74q156 0 240 70t84 199q0 248 -314 247q-98 0 -194 -10v135l430 469h-606v168h833v-162l-422 -446q10 2 20.5 2h20.5q203 0 321.5 -109.5t118.5 -293.5q0 -201 -144 -321t-388 -120q-193 0 -381 82z" />
<glyph unicode="4" d="M61 305v158l674 956h197v-948h198v-166h-198v-305h-191v305h-680zM266 471h475v680z" />
<glyph unicode="5" d="M139 51v164q227 -74 389 -74q156 0 239 71t83 204q0 145 -78 210.5t-254 65.5q-127 0 -317 -20v135l39 612h747v-168h-575l-27 -415q113 20 203 20q221 0 346 -116.5t125 -321.5q0 -201 -145.5 -325t-383.5 -124q-209 0 -391 82z" />
<glyph unicode="6" d="M106 664q0 373 153 579.5t427 206.5q86 0 172 -18.5t150 -49.5v-155q-68 25 -147.5 40t-147.5 15q-197 0 -296.5 -134t-107.5 -409q82 55 176.5 86t184.5 31q125 0 222 -50t153.5 -145.5t56.5 -222.5q0 -213 -131 -341t-350 -128q-256 0 -385.5 174t-129.5 521zM309 604 q12 -467 318 -467q129 0 199.5 74t70.5 213q0 127 -73 197.5t-208 70.5q-74 0 -153.5 -23.5t-153.5 -64.5z" />
<glyph unicode="7" d="M106 1251v168h963v-162l-555 -1257h-219l567 1251h-756z" />
<glyph unicode="8" d="M100 350q0 125 71 225.5t206 161.5q-113 57 -167 136t-54 188q0 176 121.5 282.5t322.5 106.5q199 0 323 -104.5t124 -272.5q0 -113 -62.5 -205t-173.5 -147q154 -70 221.5 -152t67.5 -200q0 -184 -136.5 -292t-369.5 -108q-225 0 -359.5 102.5t-134.5 278.5zM297 385 q0 -121 79 -187.5t224 -66.5q143 0 223 62.5t80 177.5q0 84 -58.5 138t-215.5 120l-125 51q-207 -117 -207 -295zM348 1071q0 -84 55.5 -144.5t174.5 -109.5l106 -43q170 113 170 279q0 117 -67.5 180t-188.5 63q-119 0 -184.5 -59.5t-65.5 -165.5z" />
<glyph unicode="9" d="M104 973q0 137 58.5 244.5t167 170t250.5 62.5q248 0 377.5 -174t129.5 -508q0 -385 -153.5 -592t-435.5 -207q-203 0 -338 88v156q168 -76 309 -76q197 0 298 121t116 375q-74 -49 -164 -77t-184 -28q-199 0 -315 119t-116 326zM309 985q0 -143 70 -218t205 -75 q78 0 156.5 20.5t144.5 57.5v29q-6 483 -310 483q-121 0 -193.5 -81t-72.5 -216z" />
<glyph unicode=":" horiz-adv-x="507" d="M121 115q0 59 37 97t96 38t96 -38t37 -97t-37 -97t-96 -38t-96 37.5t-37 97.5zM121 924q0 59 37 97t96 38t96 -38t37 -97t-37 -97t-96 -38t-96 37.5t-37 97.5z" />
<glyph unicode=";" horiz-adv-x="507" d="M61 -313l105 551h65q70 0 99.5 -17.5t29.5 -58.5q0 -33 -28 -115l-131 -360h-140zM121 924q0 59 37 97t96 38t96 -38t37 -97t-37 -97t-96 -38t-96 37.5t-37 97.5z" />
<glyph unicode="&#x3c;" d="M154 633v164l893 393v-184l-699 -289l699 -289v-188z" />
<glyph unicode="=" d="M137 408v164h926v-164h-926zM137 858v164h926v-164h-926z" />
<glyph unicode="&#x3e;" d="M154 240v184l698 289l-698 288v189l893 -393v-164z" />
<glyph unicode="?" horiz-adv-x="878" d="M70 1190v162q168 98 358 98q182 0 285.5 -90t103.5 -248q0 -135 -87 -237.5t-273 -186.5v-258h-168l-19 330l95 47q133 66 192 132.5t59 152.5q0 92 -56 140t-165 48q-76 0 -152.5 -21.5t-172.5 -68.5zM242 115q0 59 36.5 97t96.5 38q59 0 96 -38t37 -97t-37 -97t-96 -38 t-96 37.5t-37 97.5z" />
<glyph unicode="@" horiz-adv-x="1959" d="M98 342q0 211 69 398.5t200 333t317 229t410 83.5q231 0 403 -87t268.5 -253.5t96.5 -396.5q0 -182 -58.5 -333.5t-166 -242.5t-244.5 -91q-88 0 -146.5 34.5t-85.5 100.5q-63 -68 -143 -104t-164 -36q-145 0 -228 97.5t-83 269.5q0 156 60.5 295t169 229t237.5 90 q74 0 136 -30.5t105 -85.5l33 86h141l-106 -637q-6 -39 -6 -70q0 -51 22.5 -74.5t69.5 -23.5q76 0 140.5 66.5t104.5 187.5t40 272q0 274 -159 428t-441 154q-225 0 -409.5 -109.5t-294.5 -312.5t-110 -465q0 -305 155.5 -470t440.5 -165q166 0 347 58v-144 q-170 -70 -359 -69q-231 0 -403 92t-265.5 270t-93.5 426zM731 362q0 -115 45 -175t131 -60q125 0 240 113q0 23 6 67l70 426q-76 76 -185 76q-82 0 -151.5 -57.5t-112.5 -161t-43 -228.5z" />
<glyph unicode="A" horiz-adv-x="1314" d="M20 0l525 1419h225l524 -1419h-217l-131 377h-584l-126 -377h-216zM416 535h477l-240 696z" />
<glyph unicode="B" horiz-adv-x="1255" d="M172 0v1419h469q199 0 319.5 -102.5t120.5 -272.5q0 -106 -49 -183t-141 -118q131 -39 200.5 -128t69.5 -220q0 -180 -127 -287.5t-340 -107.5h-522zM371 160h319q260 0 260 243q0 121 -66.5 182.5t-197.5 61.5h-315v-487zM371 803h250q253 0 253 225q0 115 -62 173.5 t-185 58.5h-256v-457z" />
<glyph unicode="C" horiz-adv-x="1243" d="M131 705q0 354 179 544.5t513 190.5q174 0 328 -56v-170q-186 43 -303 43q-258 0 -377 -125.5t-119 -400.5v-49q0 -270 116 -397t368 -127q129 0 335 51v-170q-166 -63 -358 -64q-336 0 -509 185.5t-173 544.5z" />
<glyph unicode="D" horiz-adv-x="1413" d="M172 0v1419h467q313 0 478 -181t165 -529q0 -344 -168 -526.5t-481 -182.5h-461zM381 164h229q457 0 457 522v47q0 260 -114.5 391t-342.5 131h-229v-1091z" />
<glyph unicode="E" horiz-adv-x="1148" d="M172 0v1419h883v-168h-674v-436h565v-168h-565v-479h674v-168h-883z" />
<glyph unicode="F" horiz-adv-x="1073" d="M172 0v1419h842v-168h-633v-456h522v-168h-522v-627h-209z" />
<glyph unicode="G" horiz-adv-x="1417" d="M131 700q0 360 178 550t516 190q215 0 396 -84v-164q-209 72 -373 72q-260 0 -381 -130t-121 -407v-45q0 -272 124 -401t386 -129q121 0 217 22v416h-317v162h514v-676q-88 -49 -207 -75t-248 -26q-336 0 -510 184.5t-174 540.5z" />
<glyph unicode="H" horiz-adv-x="1470" d="M172 0v1419h209v-610h709v610h208v-1419h-208v641h-709v-641h-209z" />
<glyph unicode="I" horiz-adv-x="569" d="M180 0v1419h209v-1419h-209z" />
<glyph unicode="J" horiz-adv-x="894" d="M53 18v162q117 -39 232 -39q127 0 182 64.5t55 212.5v1001h209v-997q0 -457 -428 -457q-121 0 -250 53z" />
<glyph unicode="K" horiz-adv-x="1263" d="M172 0v1419h209v-635l584 635h245l-630 -678l686 -741h-256l-629 678v-678h-209z" />
<glyph unicode="L" horiz-adv-x="1073" d="M172 0v1419h209v-1247h670v-172h-879z" />
<glyph unicode="M" horiz-adv-x="1720" d="M172 0v1419h234l458 -870l457 870h227v-1419h-192v1116l-400 -754h-190l-401 756v-1118h-193z" />
<glyph unicode="N" horiz-adv-x="1462" d="M172 0v1419h227l699 -1134v1134h192v-1419h-229l-696 1128v-1128h-193z" />
<glyph unicode="O" horiz-adv-x="1591" d="M131 709q0 227 78 394t228.5 257t359.5 90q309 0 486 -197.5t177 -543.5q0 -227 -77.5 -394.5t-227 -258.5t-358.5 -91q-203 0 -352.5 87t-231.5 255.5t-82 401.5zM346 709q0 -279 116 -423.5t335 -144.5t333.5 145.5t114.5 422.5q0 276 -114.5 420.5t-333.5 144.5 q-221 0 -336 -144.5t-115 -420.5z" />
<glyph unicode="P" horiz-adv-x="1228" d="M172 0v1419h514q207 0 330 -117.5t123 -318.5q0 -199 -123 -316.5t-330 -117.5h-311v-549h-203zM375 715h293q129 0 194.5 68.5t65.5 199.5q0 270 -260 270h-293v-538z" />
<glyph unicode="Q" horiz-adv-x="1591" d="M131 709q0 227 78 394t228.5 257t359.5 90q309 0 486 -197.5t177 -543.5q0 -289 -125 -477.5t-354 -243.5q203 -119 467 -138v-182q-365 39 -678 299q-301 8 -470 205t-169 537zM346 709q0 -279 116 -423.5t335 -144.5t333.5 145.5t114.5 422.5q0 276 -114.5 420.5 t-333.5 144.5q-221 0 -336 -144.5t-115 -420.5z" />
<glyph unicode="R" horiz-adv-x="1255" d="M172 0v1419h518q207 0 330 -113.5t123 -306.5q0 -141 -77 -244.5t-216 -150.5l377 -604h-228l-348 571h-276v-571h-203zM375 737h289q131 0 199.5 65.5t68.5 194.5q0 127 -65.5 191.5t-194.5 64.5h-297v-516z" />
<glyph unicode="S" horiz-adv-x="1167" d="M119 1055q0 115 57 204t165 140t253 51q184 0 379 -74v-166q-207 63 -365 64q-133 0 -205.5 -54.5t-72.5 -154.5q0 -82 49 -130t182 -97l187 -70q166 -61 238.5 -148.5t72.5 -224.5q0 -197 -140.5 -313.5t-377.5 -116.5q-236 0 -410 84v164q215 -72 406 -72 q145 0 228 63.5t83 172.5q0 76 -48 126t-163 95l-199 76q-168 63 -243.5 153.5t-75.5 227.5z" />
<glyph unicode="T" horiz-adv-x="1175" d="M31 1247v172h1114v-172h-453v-1247h-209v1247h-452z" />
<glyph unicode="U" horiz-adv-x="1445" d="M164 518v901h209v-919q0 -172 90 -265.5t260 -93.5t260 93.5t90 265.5v919h209v-901q0 -266 -144.5 -409.5t-414.5 -143.5t-414.5 142.5t-144.5 410.5z" />
<glyph unicode="V" horiz-adv-x="1310" d="M20 1419h230l409 -1210l410 1210h221l-522 -1419h-225z" />
<glyph unicode="W" horiz-adv-x="1902" d="M35 1419h227l305 -1190l273 1149h229l272 -1151l308 1192h219l-414 -1419h-233l-269 1112l-270 -1112h-233z" />
<glyph unicode="X" horiz-adv-x="1236" d="M16 0l484 733l-453 686h238l338 -532l333 532h232l-453 -680l486 -739h-240l-369 586l-364 -586h-232z" />
<glyph unicode="Y" horiz-adv-x="1236" d="M29 1419h231l358 -727l365 727h225l-491 -901v-518h-205v522z" />
<glyph unicode="Z" horiz-adv-x="1185" d="M86 0v160l786 1089h-741v170h969v-159l-789 -1090h789v-170h-1014z" />
<glyph unicode="[" horiz-adv-x="718" d="M172 -295v1839h506v-164h-297v-1511h297v-164h-506z" />
<glyph unicode="\" horiz-adv-x="966" d="M33 1544h205l696 -1839h-205z" />
<glyph unicode="]" horiz-adv-x="718" d="M41 -131h297v1511h-297v164h506v-1839h-506v164z" />
<glyph unicode="^" d="M102 621l412 798h172l412 -798h-199l-299 618l-303 -618h-195z" />
<glyph unicode="_" horiz-adv-x="1024" d="M0 -141h1024v-164h-1024v164z" />
<glyph unicode="`" horiz-adv-x="1204" d="M389 1559h238l186 -328h-164z" />
<glyph unicode="a" horiz-adv-x="1079" d="M86 279q0 150 106.5 238.5t286.5 88.5q119 0 258 -35v136q0 111 -50 155.5t-171 44.5q-174 0 -360 -63v143q74 39 180 60.5t215 21.5q195 0 287 -81t92 -247v-741h-168l-17 106q-74 -63 -162.5 -98t-176.5 -35q-145 0 -232.5 83t-87.5 223zM289 289q0 -78 43 -120 t123 -42q139 0 282 104v209q-106 27 -217 27q-231 0 -231 -178z" />
<glyph unicode="b" horiz-adv-x="1212" d="M152 0v1516h202v-576q154 129 332 129q199 0 313.5 -143.5t114.5 -393.5q0 -252 -121 -403.5t-321 -151.5q-188 0 -330 132l-23 -109h-167zM354 240q129 -98 271 -99q282 0 282 378q0 198 -68.5 292t-209.5 94q-145 0 -275 -94v-571z" />
<glyph unicode="c" horiz-adv-x="944" d="M98 516q0 260 132 402.5t374 142.5q137 0 258 -57v-146q-117 37 -229 37q-172 0 -248 -87t-76 -278v-26q0 -186 77 -273.5t243 -87.5q111 0 241 41v-145q-119 -61 -274 -62q-242 0 -370 138.5t-128 400.5z" />
<glyph unicode="d" horiz-adv-x="1208" d="M98 514q0 166 53.5 291t152.5 194.5t237 69.5q174 0 313 -115v562h203v-1516h-168l-27 106q-68 -61 -153.5 -95t-173.5 -34q-129 0 -227.5 63.5t-154 185.5t-55.5 288zM305 520q0 -379 291 -379q127 0 258 95v579q-63 47 -127.5 68.5t-142.5 21.5q-279 0 -279 -385z" />
<glyph unicode="e" horiz-adv-x="1083" d="M98 520q0 260 129 404.5t361 144.5q195 0 299 -109.5t104 -310.5q0 -96 -16 -174h-680q4 -176 87 -260t257 -84q162 0 330 64v-146q-147 -80 -361 -80q-252 0 -381 139.5t-129 411.5zM295 610h510q2 16 2 54q0 125 -58 188t-171 63q-129 0 -201 -76.5t-82 -228.5z" />
<glyph unicode="f" horiz-adv-x="763" d="M37 879v131l192 24v168q0 342 328 342q115 0 205 -37v-143q-104 16 -160 16q-94 0 -132 -35.5t-38 -117.5v-189h318v-159h-318v-879h-203v879h-192z" />
<glyph unicode="g" horiz-adv-x="1187" d="M98 535q0 246 117 390t313 144q184 0 322 -127l16 96h170v-975q0 -244 -130 -376.5t-369 -132.5q-193 0 -355 81v146q188 -63 338 -64q164 0 240 79t76 253v92q-70 -59 -150 -91t-162 -32q-125 0 -221 61.5t-150.5 179.5t-54.5 276zM305 543q0 -178 71 -269.5t208 -91.5 q127 0 252 94v539q-61 47 -125 68.5t-140 21.5q-266 0 -266 -362z" />
<glyph unicode="h" horiz-adv-x="1204" d="M152 0v1516h202v-584q195 137 398 137q150 0 227.5 -79t77.5 -228v-762h-203v694q0 109 -44 160t-138 51q-162 0 -318 -104v-801h-202z" />
<glyph unicode="i" horiz-adv-x="522" d="M135 1346q0 55 34 88.5t93 33.5t93 -33.5t34 -88.5t-34 -89t-93 -34t-93 33.5t-34 89.5zM160 0v1038h202v-1038h-202z" />
<glyph unicode="j" horiz-adv-x="522" d="M-70 -274q47 -8 121 -9q57 0 83 21.5t26 71.5v1228h202v-1212q0 -133 -65.5 -202.5t-192.5 -69.5q-86 0 -174 26v146zM135 1346q0 55 34 88.5t93 33.5t93 -33.5t34 -88.5t-34 -89t-93 -34t-93 33.5t-34 89.5z" />
<glyph unicode="k" horiz-adv-x="1077" d="M152 0v1516h202v-930l441 452h247l-491 -493l524 -545h-256l-465 492v-492h-202z" />
<glyph unicode="l" horiz-adv-x="583" d="M152 231v1285h202v-1272q0 -47 19.5 -68.5t64.5 -21.5q41 0 84 6v-146q-65 -24 -141 -24h-6q-109 0 -166 62.5t-57 178.5z" />
<glyph unicode="m" horiz-adv-x="1828" d="M152 0v1038h170l20 -104q197 135 383 135q190 0 258 -145q203 145 406 145q141 0 216.5 -80t75.5 -227v-762h-202v705q0 102 -39 151t-123 49q-150 0 -301 -92q2 -14 2 -30.5v-32.5v-750h-203v705q0 102 -39 151t-123 49q-156 0 -299 -90v-815h-202z" />
<glyph unicode="n" horiz-adv-x="1204" d="M152 0v1038h170l20 -114q195 145 410 145q150 0 227.5 -79t77.5 -228v-762h-203v694q0 109 -44 160t-138 51q-162 0 -318 -104v-801h-202z" />
<glyph unicode="o" horiz-adv-x="1187" d="M98 520q0 258 131 403.5t365 145.5q233 0 364.5 -145.5t131.5 -403.5q0 -260 -131.5 -405.5t-364.5 -145.5t-364.5 145.5t-131.5 405.5zM305 520q0 -387 289 -387t289 387q0 385 -289 385t-289 -385z" />
<glyph unicode="p" horiz-adv-x="1212" d="M152 -422v1460h170l18 -106q156 137 346 137q199 0 313.5 -144.5t114.5 -392.5q0 -252 -121 -403.5t-321 -151.5q-184 0 -318 121v-520h-202zM354 240q133 -98 271 -99q282 0 282 378q0 198 -68.5 292t-209.5 94q-145 0 -275 -94v-571z" />
<glyph unicode="q" horiz-adv-x="1208" d="M98 514q0 166 52.5 291t152.5 194.5t236 69.5q195 0 331 -129l17 98h170v-1460h-203v520q-68 -57 -150.5 -89t-168.5 -32q-129 0 -227.5 63.5t-154 185.5t-55.5 288zM305 520q0 -379 291 -379q127 0 258 95v579q-63 47 -127.5 68.5t-142.5 21.5q-279 0 -279 -385z" />
<glyph unicode="r" horiz-adv-x="763" d="M152 0v1038h170l22 -153q57 61 106.5 95t100.5 50.5t111 16.5q39 0 83 -7v-184q-66 8 -110 8q-164 0 -281 -98v-766h-202z" />
<glyph unicode="s" horiz-adv-x="884" d="M78 47v143q193 -63 356 -63q100 0 152.5 39t52.5 113q0 49 -32 79.5t-115 61.5l-175 65q-227 84 -227 287q0 133 103.5 215t271.5 82q162 0 305 -65v-144q-160 51 -295 51q-196 0 -196 -132q0 -54 32.5 -84.5t128.5 -67.5l160 -62q121 -47 174 -111.5t53 -166.5 q0 -145 -108.5 -231.5t-288.5 -86.5q-203 0 -352 78z" />
<glyph unicode="t" horiz-adv-x="784" d="M29 879v131l194 24l31 295h166v-291h307v-159h-307v-592q0 -76 33.5 -106.5t115.5 -30.5q84 0 166 20v-145q-100 -39 -227 -39q-291 0 -291 290v603h-188z" />
<glyph unicode="u" horiz-adv-x="1177" d="M143 283v755h203v-690q0 -111 43 -163t137 -52q147 0 297 98v807h203v-1038h-168l-22 111q-190 -141 -392 -142q-145 0 -223 82t-78 232z" />
<glyph unicode="v" horiz-adv-x="1044" d="M16 1038h217l293 -854l293 854h209l-405 -1038h-199z" />
<glyph unicode="w" horiz-adv-x="1574" d="M18 1038h213l234 -831l221 831h203l221 -841l240 841h206l-348 -1038h-204l-222 813l-219 -813h-205z" />
<glyph unicode="x" horiz-adv-x="985" d="M14 0l367 532l-346 506h223l238 -362l235 362h213l-344 -493l371 -545h-226l-260 397l-256 -397h-215z" />
<glyph unicode="y" horiz-adv-x="1042" d="M14 1038h217l299 -850l289 850h209l-473 -1220q-53 -141 -128 -202.5t-189 -61.5q-86 0 -160 28v146q55 -14 117 -15q76 0 119.5 38t78.5 134l39 105z" />
<glyph unicode="z" horiz-adv-x="974" d="M74 0v156l596 723h-576v159h801v-153l-604 -725h610v-160h-827z" />
<glyph unicode="{" horiz-adv-x="782" d="M59 545v160h43q82 0 115 32.5t33 110.5v366q0 164 85 255.5t236 91.5q100 0 168 -31v-146q-76 14 -131 15q-76 0 -112.5 -41t-36.5 -125v-373q0 -98 -42 -153.5t-138 -81.5q96 -27 138 -82.5t42 -153.5v-373q0 -84 36.5 -125t112.5 -41q55 0 131 15v-146 q-68 -31 -168 -30q-152 0 -236.5 91t-84.5 255v366q0 78 -33 111t-115 33h-43z" />
<glyph unicode="|" horiz-adv-x="575" d="M184 -422v1966h207v-1966h-207z" />
<glyph unicode="}" horiz-adv-x="782" d="M43 -135q76 -14 131 -15q76 0 113 41t37 125v373q0 98 42 153.5t138 82.5q-96 27 -138 81t-42 154v373q0 84 -37 125t-113 41q-55 0 -131 -15v146q68 31 168 31q152 0 236.5 -91.5t84.5 -255.5v-366q0 -78 33 -110.5t115 -32.5h43v-160h-43q-82 0 -115 -33t-33 -111v-366 q0 -164 -85 -255t-236 -91q-100 0 -168 30v146z" />
<glyph unicode="~" d="M109 637q0 121 66.5 189.5t184.5 68.5q121 0 267 -109q82 -61 120.5 -79.5t81.5 -18.5q49 0 74 30t29 93l6 72h145q8 -33 9 -95q0 -121 -67 -189.5t-185 -68.5q-121 0 -267 109q-82 61 -120.5 79.5t-81.5 18.5q-49 0 -74 -29.5t-29 -93.5l-6 -71h-145q-8 33 -8 94z" />
<glyph unicode="&#xa1;" horiz-adv-x="528" d="M131 924q0 59 37 97t96 38t96 -38t37 -97t-37 -97.5t-96 -38.5t-96 38t-37 98zM152 -381l28 989h168l29 -989q-53 -27 -113 -27q-59 0 -112 27z" />
<glyph unicode="&#xa2;" d="M195 575q0 236 113.5 374t326.5 161v309h127v-307q131 -6 248 -59v-146q-129 39 -248 43v-747q121 4 256 45v-144q-106 -55 -256 -65v-305h-127v307q-217 20 -328.5 155.5t-111.5 378.5zM395 563q0 -158 58.5 -244t181.5 -108v729q-123 -23 -181.5 -107.5t-58.5 -242.5 v-27z" />
<glyph unicode="&#xa3;" d="M137 627v159h178q-16 72 -29.5 136.5t-13.5 124.5q0 117 54.5 208t158 142t242.5 51q100 0 192.5 -25.5t161.5 -72.5v-162q-180 86 -336 86q-133 0 -201.5 -63.5t-68.5 -188.5q0 -78 35 -236h426v-159h-395q8 -49 8 -109q0 -205 -146 -348h697v-170h-914v156 q164 133 164 364q0 27 -1 53.5t-5 53.5h-207z" />
<glyph unicode="&#xa4;" d="M70 240l161 166q-88 121 -88 290q0 170 88 291l-161 166l125 111l161 -172q104 63 244 63q139 0 244 -63l162 172l124 -111l-163 -166q90 -119 90 -291q0 -170 -88 -290l161 -166l-124 -111l-162 172q-105 -63 -244 -63t-244 63l-161 -172zM326 696q0 -309 274 -309 t274 309t-274 310q-274 0 -274 -310z" />
<glyph unicode="&#xa5;" d="M39 1419h227l336 -733l342 733h217l-336 -651h232v-135h-299l-60 -117v-63h357v-136h-357v-317h-198v317h-357v136h357v65l-60 115h-297v135h230z" />
<glyph unicode="&#xa6;" horiz-adv-x="575" d="M184 309h207v-731h-207v731zM184 813v731h207v-731h-207z" />
<glyph unicode="&#xa7;" horiz-adv-x="972" d="M74 627q0 100 55 168.5t152 93.5q-174 82 -175 256q0 141 103.5 223t279.5 82q158 0 320 -68v-143q-172 53 -311 53q-104 0 -154.5 -34.5t-50.5 -106.5q0 -51 31.5 -84t119.5 -68l181 -71q150 -59 212 -130t62 -177q0 -197 -186 -271q147 -88 147 -239 q0 -143 -109.5 -225.5t-301.5 -82.5q-98 0 -191.5 20.5t-165.5 59.5v144q193 -66 350 -66q231 0 232 150q0 55 -37 88.5t-139 72.5l-170 66q-135 51 -194.5 120t-59.5 169zM260 649q0 -63 39 -102t145 -82l129 -51q68 20 104 67t36 113q0 70 -44 117t-151 88l-74 26 q-90 -10 -137 -55t-47 -121z" />
<glyph unicode="&#xa8;" horiz-adv-x="1204" d="M260 1335q0 53 33 85t88 32q57 0 90 -31.5t33 -85.5q0 -53 -33 -85.5t-90 -32.5q-55 0 -88 32.5t-33 85.5zM700 1335q0 53 33 85t90 32q55 0 88 -31.5t33 -85.5q0 -53 -33 -85.5t-88 -32.5q-57 0 -90 32.5t-33 85.5z" />
<glyph unicode="&#xa9;" horiz-adv-x="1585" d="M53 707q0 209 91.5 376.5t260 266t388.5 98.5q207 0 374.5 -91t266 -261t98.5 -389q0 -209 -91 -377t-260 -266.5t-388 -98.5q-207 0 -375 91t-266.5 261t-98.5 390zM203 707q0 -176 71.5 -314.5t206 -218.5t312.5 -80q170 0 303 75t209.5 214t76.5 324q0 176 -71.5 314 t-205.5 218t-312 80q-170 0 -303.5 -75t-210 -214t-76.5 -323zM457 717q0 197 100 306.5t281 109.5q102 0 188 -41v-125q-80 27 -174 26q-221 0 -221 -256v-37q0 -131 56 -194.5t173 -63.5q76 0 174 29v-129q-100 -41 -198 -41q-182 0 -280.5 108.5t-98.5 307.5z" />
<glyph unicode="&#xaa;" horiz-adv-x="817" d="M70 899q0 106 77.5 165.5t214.5 59.5q82 0 166 -22v92q0 70 -32.5 97.5t-112.5 27.5q-121 0 -262 -47v110q123 61 291 62q139 0 206.5 -56.5t67.5 -173.5v-505h-137l-14 73q-115 -94 -240 -94q-102 0 -163.5 58.5t-61.5 152.5zM84 442v123h602v-123h-602zM227 907 q0 -49 31 -75.5t84 -26.5q86 0 186 61v142q-72 14 -143 14q-158 0 -158 -115z" />
<glyph unicode="&#xab;" horiz-adv-x="1079" d="M94 530l279 426h198l-260 -426l260 -426h-198zM495 530l279 426h198l-260 -426l260 -426h-198z" />
<glyph unicode="&#xac;" d="M137 811v164h926v-520h-176v356h-750z" />
<glyph unicode="&#xad;" horiz-adv-x="798" d="M94 444v172h611v-172h-611z" />
<glyph unicode="&#xae;" horiz-adv-x="1093" d="M53 1053q0 139 61.5 250.5t174 176t258.5 64.5q139 0 250.5 -60.5t177 -172t65.5 -256.5q0 -139 -61 -251t-174 -176.5t-258 -64.5q-139 0 -251 60.5t-177.5 172t-65.5 257.5zM156 1053q0 -182 106.5 -293t284.5 -111t284.5 110.5t106.5 295.5q0 182 -106.5 292.5 t-284.5 110.5t-284.5 -110.5t-106.5 -294.5zM369 791v536h200q86 0 135.5 -45t49.5 -125q0 -51 -28 -89t-77 -56l142 -221h-117l-121 204h-80v-204h-104zM473 1077h78q92 0 92 78q0 39 -21.5 62.5t-58.5 23.5h-90v-164z" />
<glyph unicode="&#xaf;" horiz-adv-x="1204" d="M272 1303v133h660v-133h-660z" />
<glyph unicode="&#xb0;" horiz-adv-x="770" d="M102 1151q0 129 77 207t206 78t206 -78t77 -207t-77 -207t-206 -78t-206 78t-77 207zM242 1151q0 -78 37.5 -122t105.5 -44t105.5 44t37.5 122t-37.5 122t-105.5 44t-105.5 -44t-37.5 -122z" />
<glyph unicode="&#xb1;" d="M137 53v164h926v-164h-926zM137 770v164h375v391h176v-391h375v-164h-375v-391h-176v391h-375z" />
<glyph unicode="&#xb2;" horiz-adv-x="839" d="M135 799v117q219 199 296 293t77 165q0 49 -32 77t-87 28q-98 0 -235 -86v131q123 90 272 90q115 0 184.5 -60.5t69.5 -160.5q0 -88 -76 -186.5t-280 -278.5h385v-129h-574z" />
<glyph unicode="&#xb3;" horiz-adv-x="839" d="M143 834v121q135 -45 234 -45q84 0 130 33.5t46 93.5q0 59 -40 86.5t-128 27.5q-63 0 -129 -6v86l240 240h-346v127h516v-115l-226 -225h25q117 0 182.5 -58.5t65.5 -160.5q0 -121 -87 -188.5t-241 -67.5q-141 0 -242 51z" />
<glyph unicode="&#xb4;" horiz-adv-x="1204" d="M389 1231l186 328h238l-260 -328h-164z" />
<glyph unicode="&#xb5;" d="M147 -422v1460h203v-690q0 -215 201 -215q76 0 141.5 26.5t134.5 84.5v794h203v-802q0 -43 19.5 -62.5t66.5 -19.5q35 0 72 6v-146q-74 -25 -141 -24q-152 0 -195 131q-156 -152 -330 -152q-115 0 -182 58v-449h-193z" />
<glyph unicode="&#xb6;" horiz-adv-x="1236" d="M72 938q0 227 147.5 354t409.5 127h428v-1632h-170v1479h-230v-1688h-170v922q-199 27 -307 141.5t-108 296.5z" />
<glyph unicode="&#xb7;" horiz-adv-x="507" d="M121 535q0 59 37 97t96 38t96 -38t37 -97t-37 -97t-96 -38t-96 37.5t-37 97.5z" />
<glyph unicode="&#xb8;" horiz-adv-x="1204" d="M439 -502q80 51 125 102.5t45 92.5q0 53 -78 53q-33 0 -76 -6v113q57 18 125 18q86 0 136 -40t50 -107q0 -170 -243 -299z" />
<glyph unicode="&#xb9;" horiz-adv-x="839" d="M166 1352v127l262 119h143v-799h-163v639z" />
<glyph unicode="&#xba;" horiz-adv-x="856" d="M82 1063q0 176 92 278.5t254 102.5t254 -102.5t92 -278.5q0 -178 -92 -279.5t-254 -101.5t-254 101.5t-92 279.5zM106 442v123h648v-123h-648zM248 1063q0 -133 43 -192.5t137 -59.5t137 59.5t43 192.5q0 131 -44 191.5t-136 60.5t-136 -60.5t-44 -191.5z" />
<glyph unicode="&#xbb;" horiz-adv-x="1079" d="M106 104l261 426l-261 426h199l279 -426l-279 -426h-199zM507 104l261 426l-261 426h199l279 -426l-279 -426h-199z" />
<glyph unicode="&#xbc;" horiz-adv-x="1925" d="M166 1174v127l262 119h143v-799h-163v639zM557 0l682 1419h166l-682 -1419h-166zM1175 164v117l391 530h154v-528h121v-119h-121v-164h-143v164h-402zM1321 283h256v348z" />
<glyph unicode="&#xbd;" horiz-adv-x="1925" d="M166 1174v127l262 119h143v-799h-163v639zM502 0l682 1419h166l-682 -1419h-166zM1220 0v117q219 199 296 293t77 165q0 49 -32 77t-87 28q-98 0 -235 -86v131q123 90 272 90q115 0 184.5 -60.5t69.5 -160.5q0 -88 -76 -186.5t-280 -278.5h385v-129h-574z" />
<glyph unicode="&#xbe;" horiz-adv-x="1925" d="M143 656v121q135 -45 234 -45q84 0 130 33.5t46 93.5q0 59 -40 86.5t-128 27.5q-63 0 -129 -6v86l240 240h-346v127h516v-115l-226 -225h25q117 0 182.5 -58.5t65.5 -160.5q0 -121 -87 -188.5t-241 -67.5q-141 0 -242 51zM571 0l682 1419h166l-682 -1419h-166zM1175 164 v117l391 530h154v-528h121v-119h-121v-164h-143v164h-402zM1321 283h256v348z" />
<glyph unicode="&#xbf;" horiz-adv-x="878" d="M61 -74q0 135 87.5 237.5t273.5 186.5v258h168l18 -329l-94 -48q-133 -66 -192.5 -132t-59.5 -152q0 -92 56.5 -140.5t164.5 -48.5q76 0 153 21.5t173 68.5v-161q-168 -98 -358 -99q-182 0 -286 90.5t-104 247.5zM371 924q0 59 37 97t96 38t96 -38t37 -97t-37 -97.5 t-96 -38.5t-96 38t-37 98z" />
<glyph unicode="&#xc0;" horiz-adv-x="1314" d="M20 0l525 1419h225l524 -1419h-217l-131 377h-584l-126 -377h-216zM307 1827h244l196 -252h-180zM416 535h477l-240 696z" />
<glyph unicode="&#xc1;" horiz-adv-x="1314" d="M20 0l525 1419h225l524 -1419h-217l-131 377h-584l-126 -377h-216zM416 535h477l-240 696zM567 1575l196 252h244l-260 -252h-180z" />
<glyph unicode="&#xc2;" horiz-adv-x="1314" d="M20 0l525 1419h225l524 -1419h-217l-131 377h-584l-126 -377h-216zM278 1575l273 276h210l273 -276h-203l-174 164l-176 -164h-203zM416 535h477l-240 696z" />
<glyph unicode="&#xc3;" horiz-adv-x="1314" d="M20 0l525 1419h225l524 -1419h-217l-131 377h-584l-126 -377h-216zM317 1647q0 90 53.5 142t143.5 52q98 0 176 -76q41 -37 63.5 -50t48.5 -13q57 0 60 78l4 55h125q4 -16 5 -32.5t1 -33.5q0 -90 -53.5 -142t-143.5 -52q-98 0 -176 76q-41 37 -63.5 50t-48.5 13 q-57 0 -60 -78l-4 -55h-125q-4 16 -5 32.5t-1 33.5zM416 535h477l-240 696z" />
<glyph unicode="&#xc4;" horiz-adv-x="1314" d="M20 0l525 1419h225l524 -1419h-217l-131 377h-584l-126 -377h-216zM315 1714q0 53 34 86t91 33q55 0 90 -33t35 -86t-34 -86t-91 -33q-55 0 -90 33t-35 86zM416 535h477l-240 696zM749 1714q0 53 34 86t91 33q55 0 90 -33t35 -86t-34 -86t-91 -33q-55 0 -90 33t-35 86z " />
<glyph unicode="&#xc5;" horiz-adv-x="1314" d="M20 0l525 1419h225l524 -1419h-217l-131 377h-584l-126 -377h-216zM416 535h477l-240 696zM432 1710q0 90 61.5 145.5t163.5 55.5t163.5 -55.5t61.5 -145.5t-61.5 -145.5t-163.5 -55.5t-163.5 55.5t-61.5 145.5zM559 1710q0 -47 26.5 -72.5t71.5 -25.5t71.5 25.5 t26.5 72.5t-26.5 72.5t-71.5 25.5t-71.5 -25.5t-26.5 -72.5z" />
<glyph unicode="&#xc6;" horiz-adv-x="1945" d="M20 0l814 1419h1017v-168h-673v-436h565v-168h-565v-479h673v-168h-882v410h-492l-225 -410h-232zM563 565h406v686h-25z" />
<glyph unicode="&#xc7;" horiz-adv-x="1243" d="M131 705q0 354 179 544.5t513 190.5q174 0 328 -56v-170q-186 43 -303 43q-258 0 -377 -125.5t-119 -400.5v-49q0 -270 116 -397t368 -127q129 0 335 51v-170q-166 -63 -358 -64q-336 0 -509 185.5t-173 544.5zM623 -498q80 51 124 100.5t44 88.5q0 51 -76 51 q-31 0 -74 -6v117q57 18 125 18q86 0 136.5 -40t50.5 -107q0 -170 -244 -299z" />
<glyph unicode="&#xc8;" horiz-adv-x="1148" d="M172 0v1419h883v-168h-674v-436h565v-168h-565v-479h674v-168h-883zM262 1827h244l196 -252h-180z" />
<glyph unicode="&#xc9;" horiz-adv-x="1148" d="M172 0v1419h883v-168h-674v-436h565v-168h-565v-479h674v-168h-883zM522 1575l196 252h244l-260 -252h-180z" />
<glyph unicode="&#xca;" horiz-adv-x="1148" d="M172 0v1419h883v-168h-674v-436h565v-168h-565v-479h674v-168h-883zM233 1575l273 276h210l273 -276h-203l-174 164l-176 -164h-203z" />
<glyph unicode="&#xcb;" horiz-adv-x="1148" d="M172 0v1419h883v-168h-674v-436h565v-168h-565v-479h674v-168h-883zM270 1714q0 53 34 86t91 33q55 0 90 -33t35 -86t-34 -86t-91 -33q-55 0 -90 33t-35 86zM704 1714q0 53 34 86t91 33q55 0 90 -33t35 -86t-34 -86t-91 -33q-55 0 -90 33t-35 86z" />
<glyph unicode="&#xcc;" horiz-adv-x="569" d="M-65 1827h244l196 -252h-180zM180 0v1419h209v-1419h-209z" />
<glyph unicode="&#xcd;" horiz-adv-x="569" d="M180 0v1419h209v-1419h-209zM195 1575l196 252h244l-260 -252h-180z" />
<glyph unicode="&#xce;" horiz-adv-x="569" d="M-94 1575l273 276h210l273 -276h-203l-174 164l-176 -164h-203zM180 0v1419h209v-1419h-209z" />
<glyph unicode="&#xcf;" horiz-adv-x="569" d="M-57 1714q0 53 34 86t91 33q55 0 90 -33t35 -86t-34 -86t-91 -33q-55 0 -90 33t-35 86zM180 0v1419h209v-1419h-209zM377 1714q0 53 34 86t91 33q55 0 90 -33t35 -86t-34 -86t-91 -33q-55 0 -90 33t-35 86z" />
<glyph unicode="&#xd0;" horiz-adv-x="1433" d="M29 653v154h164v612h466q313 0 478.5 -181t165.5 -529q0 -344 -168 -526.5t-482 -182.5h-460v653h-164zM401 164h230q457 0 456 522v47q0 260 -114.5 391t-341.5 131h-230v-448h320v-154h-320v-489z" />
<glyph unicode="&#xd1;" horiz-adv-x="1462" d="M172 0v1419h227l699 -1134v1134h192v-1419h-229l-696 1128v-1128h-193zM408 1647q0 90 53.5 142t143.5 52q98 0 176 -76q41 -37 63.5 -50t48.5 -13q57 0 60 78l4 55h125q4 -16 5 -32.5t1 -33.5q0 -90 -53.5 -142t-143.5 -52q-98 0 -176 76q-41 37 -63.5 50t-48.5 13 q-57 0 -60 -78l-4 -55h-125q-4 16 -5 32.5t-1 33.5z" />
<glyph unicode="&#xd2;" horiz-adv-x="1591" d="M131 709q0 227 78 394t228.5 257t359.5 90q309 0 486 -197.5t177 -543.5q0 -227 -77.5 -394.5t-227 -258.5t-358.5 -91q-203 0 -352.5 87t-231.5 255.5t-82 401.5zM346 709q0 -279 116 -423.5t335 -144.5t333.5 145.5t114.5 422.5q0 276 -114.5 420.5t-333.5 144.5 q-221 0 -336 -144.5t-115 -420.5zM447 1827h244l196 -252h-180z" />
<glyph unicode="&#xd3;" horiz-adv-x="1591" d="M131 709q0 227 78 394t228.5 257t359.5 90q309 0 486 -197.5t177 -543.5q0 -227 -77.5 -394.5t-227 -258.5t-358.5 -91q-203 0 -352.5 87t-231.5 255.5t-82 401.5zM346 709q0 -279 116 -423.5t335 -144.5t333.5 145.5t114.5 422.5q0 276 -114.5 420.5t-333.5 144.5 q-221 0 -336 -144.5t-115 -420.5zM707 1575l196 252h244l-260 -252h-180z" />
<glyph unicode="&#xd4;" horiz-adv-x="1591" d="M131 709q0 227 78 394t228.5 257t359.5 90q309 0 486 -197.5t177 -543.5q0 -227 -77.5 -394.5t-227 -258.5t-358.5 -91q-203 0 -352.5 87t-231.5 255.5t-82 401.5zM346 709q0 -279 116 -423.5t335 -144.5t333.5 145.5t114.5 422.5q0 276 -114.5 420.5t-333.5 144.5 q-221 0 -336 -144.5t-115 -420.5zM418 1575l273 276h210l273 -276h-203l-174 164l-176 -164h-203z" />
<glyph unicode="&#xd5;" horiz-adv-x="1591" d="M131 709q0 227 78 394t228.5 257t359.5 90q309 0 486 -197.5t177 -543.5q0 -227 -77.5 -394.5t-227 -258.5t-358.5 -91q-203 0 -352.5 87t-231.5 255.5t-82 401.5zM346 709q0 -279 116 -423.5t335 -144.5t333.5 145.5t114.5 422.5q0 276 -114.5 420.5t-333.5 144.5 q-221 0 -336 -144.5t-115 -420.5zM457 1647q0 90 53.5 142t143.5 52q98 0 176 -76q41 -37 63.5 -50t48.5 -13q57 0 60 78l4 55h125q4 -16 5 -32.5t1 -33.5q0 -90 -53.5 -142t-143.5 -52q-98 0 -176 76q-41 37 -63.5 50t-48.5 13q-57 0 -60 -78l-4 -55h-125q-4 16 -5 32.5 t-1 33.5z" />
<glyph unicode="&#xd6;" horiz-adv-x="1591" d="M131 709q0 227 78 394t228.5 257t359.5 90q309 0 486 -197.5t177 -543.5q0 -227 -77.5 -394.5t-227 -258.5t-358.5 -91q-203 0 -352.5 87t-231.5 255.5t-82 401.5zM346 709q0 -279 116 -423.5t335 -144.5t333.5 145.5t114.5 422.5q0 276 -114.5 420.5t-333.5 144.5 q-221 0 -336 -144.5t-115 -420.5zM455 1714q0 53 34 86t91 33q55 0 90 -33t35 -86t-34 -86t-91 -33q-55 0 -90 33t-35 86zM889 1714q0 53 34 86t91 33q55 0 90 -33t35 -86t-34 -86t-91 -33q-55 0 -90 33t-35 86z" />
<glyph unicode="&#xd7;" d="M184 381l303 317l-303 318l115 117l301 -320l301 320l115 -117l-303 -318l303 -317l-115 -117l-301 320l-301 -320z" />
<glyph unicode="&#xd8;" horiz-adv-x="1591" d="M131 709q0 227 78 394t228.5 257t359.5 90q242 0 405 -123l131 166l113 -90l-141 -176q156 -197 155 -518q0 -227 -77.5 -394.5t-227 -258.5t-358.5 -91q-236 0 -400 117l-131 -164l-112 90l137 174q-160 195 -160 527zM346 709q0 -229 76 -363l661 832q-113 96 -286 96 q-221 0 -336 -144.5t-115 -420.5zM514 231q109 -90 283 -90q219 0 333.5 146t114.5 422q0 215 -71 352z" />
<glyph unicode="&#xd9;" horiz-adv-x="1445" d="M164 518v901h209v-919q0 -172 90 -265.5t260 -93.5t260 93.5t90 265.5v919h209v-901q0 -266 -144.5 -409.5t-414.5 -143.5t-414.5 142.5t-144.5 410.5zM373 1827h244l196 -252h-180z" />
<glyph unicode="&#xda;" horiz-adv-x="1445" d="M164 518v901h209v-919q0 -172 90 -265.5t260 -93.5t260 93.5t90 265.5v919h209v-901q0 -266 -144.5 -409.5t-414.5 -143.5t-414.5 142.5t-144.5 410.5zM633 1575l196 252h244l-260 -252h-180z" />
<glyph unicode="&#xdb;" horiz-adv-x="1445" d="M164 518v901h209v-919q0 -172 90 -265.5t260 -93.5t260 93.5t90 265.5v919h209v-901q0 -266 -144.5 -409.5t-414.5 -143.5t-414.5 142.5t-144.5 410.5zM344 1575l273 276h210l273 -276h-203l-174 164l-176 -164h-203z" />
<glyph unicode="&#xdc;" horiz-adv-x="1445" d="M164 518v901h209v-919q0 -172 90 -265.5t260 -93.5t260 93.5t90 265.5v919h209v-901q0 -266 -144.5 -409.5t-414.5 -143.5t-414.5 142.5t-144.5 410.5zM381 1714q0 53 34 86t91 33q55 0 90 -33t35 -86t-34 -86t-91 -33q-55 0 -90 33t-35 86zM815 1714q0 53 34 86t91 33 q55 0 90 -33t35 -86t-34 -86t-91 -33q-55 0 -90 33t-35 86z" />
<glyph unicode="&#xdd;" horiz-adv-x="1236" d="M29 1419h231l358 -727l365 727h225l-491 -901v-518h-205v522zM531 1575l196 252h244l-260 -252h-180z" />
<glyph unicode="&#xde;" horiz-adv-x="1220" d="M172 0v1419h203v-262h303q207 0 329.5 -116.5t122.5 -315.5t-121.5 -314.5t-330.5 -115.5h-303v-295h-203zM375 461h284q260 0 261 264q0 266 -261 266h-284v-530z" />
<glyph unicode="&#xdf;" horiz-adv-x="1249" d="M152 0v1018q0 250 129 388t362 138q186 0 296 -88t110 -237q0 -88 -38 -156t-134 -148q-61 -51 -82 -81.5t-21 -67.5q0 -33 32 -61.5t126 -81.5l67 -37q109 -59 158 -129t49 -166q0 -145 -109.5 -233.5t-291.5 -88.5q-141 0 -270 58v153q154 -53 266 -53q102 0 158.5 42 t56.5 118q0 51 -32 89t-114 81l-77 43q-113 61 -160 119.5t-47 134.5q0 68 33.5 123t125.5 139q63 55 87 96t24 92q0 86 -59.5 134t-163.5 48q-283 0 -283 -364v-1022h-198z" />
<glyph unicode="&#xe0;" horiz-adv-x="1079" d="M86 279q0 150 106.5 238.5t286.5 88.5q119 0 258 -35v136q0 111 -50 155.5t-171 44.5q-174 0 -360 -63v143q74 39 180 60.5t215 21.5q195 0 287 -81t92 -247v-741h-168l-17 106q-74 -63 -162.5 -98t-176.5 -35q-145 0 -232.5 83t-87.5 223zM203 1559h238l186 -328h-164z M289 289q0 -78 43 -120t123 -42q139 0 282 104v209q-106 27 -217 27q-231 0 -231 -178z" />
<glyph unicode="&#xe1;" horiz-adv-x="1079" d="M86 279q0 150 106.5 238.5t286.5 88.5q119 0 258 -35v136q0 111 -50 155.5t-171 44.5q-174 0 -360 -63v143q74 39 180 60.5t215 21.5q195 0 287 -81t92 -247v-741h-168l-17 106q-74 -63 -162.5 -98t-176.5 -35q-145 0 -232.5 83t-87.5 223zM289 289q0 -78 43 -120 t123 -42q139 0 282 104v209q-106 27 -217 27q-231 0 -231 -178zM463 1231l186 328h238l-260 -328h-164z" />
<glyph unicode="&#xe2;" horiz-adv-x="1079" d="M86 279q0 150 106.5 238.5t286.5 88.5q119 0 258 -35v136q0 111 -50 155.5t-171 44.5q-174 0 -360 -63v143q74 39 180 60.5t215 21.5q195 0 287 -81t92 -247v-741h-168l-17 106q-74 -63 -162.5 -98t-176.5 -35q-145 0 -232.5 83t-87.5 223zM176 1231l267 330h204 l267 -330h-176l-193 211l-193 -211h-176zM289 289q0 -78 43 -120t123 -42q139 0 282 104v209q-106 27 -217 27q-231 0 -231 -178z" />
<glyph unicode="&#xe3;" horiz-adv-x="1079" d="M86 279q0 150 106.5 238.5t286.5 88.5q119 0 258 -35v136q0 111 -50 155.5t-171 44.5q-174 0 -360 -63v143q74 39 180 60.5t215 21.5q195 0 287 -81t92 -247v-741h-168l-17 106q-74 -63 -162.5 -98t-176.5 -35q-145 0 -232.5 83t-87.5 223zM205 1307q0 90 53.5 142 t143.5 52q98 0 176 -76q45 -41 66.5 -54t45.5 -13q57 0 62 82l4 55h123q4 -16 5 -32.5t1 -32.5q0 -90 -53.5 -142.5t-143.5 -52.5q-98 0 -176 76q-45 41 -66.5 54t-45.5 13q-57 0 -62 -82l-4 -55h-123q-4 16 -5 32.5t-1 33.5zM289 289q0 -78 43 -120t123 -42q139 0 282 104 v209q-106 27 -217 27q-231 0 -231 -178z" />
<glyph unicode="&#xe4;" horiz-adv-x="1079" d="M86 279q0 150 106.5 238.5t286.5 88.5q119 0 258 -35v136q0 111 -50 155.5t-171 44.5q-174 0 -360 -63v143q74 39 180 60.5t215 21.5q195 0 287 -81t92 -247v-741h-168l-17 106q-74 -63 -162.5 -98t-176.5 -35q-145 0 -232.5 83t-87.5 223zM203 1335q0 53 33 85t88 32 q57 0 90 -31.5t33 -85.5q0 -53 -33 -85.5t-90 -32.5q-55 0 -88 32.5t-33 85.5zM289 289q0 -78 43 -120t123 -42q139 0 282 104v209q-106 27 -217 27q-231 0 -231 -178zM643 1335q0 53 33 85t90 32q55 0 88 -31.5t33 -85.5q0 -53 -33 -85.5t-88 -32.5q-57 0 -90 32.5 t-33 85.5z" />
<glyph unicode="&#xe5;" horiz-adv-x="1079" d="M86 279q0 150 106.5 238.5t286.5 88.5q119 0 258 -35v136q0 111 -50 155.5t-171 44.5q-174 0 -360 -63v143q74 39 180 60.5t215 21.5q195 0 287 -81t92 -247v-741h-168l-17 106q-74 -63 -162.5 -98t-176.5 -35q-145 0 -232.5 83t-87.5 223zM289 289q0 -78 43 -120 t123 -42q139 0 282 104v209q-106 27 -217 27q-231 0 -231 -178zM303 1417q0 98 66.5 157.5t175.5 59.5t175.5 -59t66.5 -158q0 -100 -66.5 -159.5t-175.5 -59.5t-175.5 59.5t-66.5 159.5zM439 1417q0 -53 28.5 -82.5t77.5 -29.5t77.5 29.5t28.5 82.5q0 51 -28.5 81t-77.5 30 t-77.5 -30t-28.5 -81z" />
<glyph unicode="&#xe6;" horiz-adv-x="1728" d="M86 279q0 156 108.5 246.5t294.5 90.5q129 0 267 -18v90q0 113 -58.5 166t-183.5 53q-164 0 -358 -63v143q74 37 178 59.5t198 22.5q125 0 212 -43t128 -125q61 82 153.5 125t207.5 43q195 0 299 -109.5t104 -312.5q0 -102 -18 -184h-682q8 -174 92 -253t260 -79 q160 0 326 64v-146q-147 -80 -359 -80q-293 0 -415 187q-88 -86 -200 -134.5t-222 -48.5q-154 0 -243 83t-89 223zM285 291q0 -168 174 -168q78 0 165 38t162 105q-29 84 -34 209q-100 8 -222 8q-246 0 -245 -192zM936 600h518q2 23 2 55q0 260 -233 260q-270 0 -287 -315z " />
<glyph unicode="&#xe7;" horiz-adv-x="944" d="M98 516q0 260 132 402.5t374 142.5q137 0 258 -57v-146q-117 37 -229 37q-172 0 -248 -87t-76 -278v-26q0 -186 77 -273.5t243 -87.5q111 0 241 41v-145q-119 -61 -274 -62q-242 0 -370 138.5t-128 400.5zM412 -502q80 51 125 102.5t45 92.5q0 53 -78 53q-33 0 -76 -6 v113q57 18 125 18q86 0 136 -40t50 -107q0 -170 -243 -299z" />
<glyph unicode="&#xe8;" horiz-adv-x="1083" d="M98 520q0 260 129 404.5t361 144.5q195 0 299 -109.5t104 -310.5q0 -96 -16 -174h-680q4 -176 87 -260t257 -84q162 0 330 64v-146q-147 -80 -361 -80q-252 0 -381 139.5t-129 411.5zM219 1559h238l186 -328h-164zM295 610h510q2 16 2 54q0 125 -58 188t-171 63 q-129 0 -201 -76.5t-82 -228.5z" />
<glyph unicode="&#xe9;" horiz-adv-x="1083" d="M98 520q0 260 129 404.5t361 144.5q195 0 299 -109.5t104 -310.5q0 -96 -16 -174h-680q4 -176 87 -260t257 -84q162 0 330 64v-146q-147 -80 -361 -80q-252 0 -381 139.5t-129 411.5zM295 610h510q2 16 2 54q0 125 -58 188t-171 63q-129 0 -201 -76.5t-82 -228.5z M479 1231l186 328h238l-260 -328h-164z" />
<glyph unicode="&#xea;" horiz-adv-x="1083" d="M98 520q0 260 129 404.5t361 144.5q195 0 299 -109.5t104 -310.5q0 -96 -16 -174h-680q4 -176 87 -260t257 -84q162 0 330 64v-146q-147 -80 -361 -80q-252 0 -381 139.5t-129 411.5zM192 1231l267 330h204l267 -330h-176l-193 211l-193 -211h-176zM295 610h510 q2 16 2 54q0 125 -58 188t-171 63q-129 0 -201 -76.5t-82 -228.5z" />
<glyph unicode="&#xeb;" horiz-adv-x="1083" d="M98 520q0 260 129 404.5t361 144.5q195 0 299 -109.5t104 -310.5q0 -96 -16 -174h-680q4 -176 87 -260t257 -84q162 0 330 64v-146q-147 -80 -361 -80q-252 0 -381 139.5t-129 411.5zM219 1335q0 53 33 85t88 32q57 0 90 -31.5t33 -85.5q0 -53 -33 -85.5t-90 -32.5 q-55 0 -88 32.5t-33 85.5zM295 610h510q2 16 2 54q0 125 -58 188t-171 63q-129 0 -201 -76.5t-82 -228.5zM659 1335q0 53 33 85t90 32q55 0 88 -31.5t33 -85.5q0 -53 -33 -85.5t-88 -32.5q-57 0 -90 32.5t-33 85.5z" />
<glyph unicode="&#xec;" horiz-adv-x="522" d="M-82 1559h238l186 -328h-164zM160 0v1038h202v-1038h-202z" />
<glyph unicode="&#xed;" horiz-adv-x="522" d="M160 0v1038h202v-1038h-202zM178 1231l186 328h238l-260 -328h-164z" />
<glyph unicode="&#xee;" horiz-adv-x="522" d="M-109 1231l267 330h204l267 -330h-176l-193 211l-193 -211h-176zM160 0v1038h202v-1038h-202z" />
<glyph unicode="&#xef;" horiz-adv-x="522" d="M-82 1335q0 53 33 85t88 32q57 0 90 -31.5t33 -85.5q0 -53 -33 -85.5t-90 -32.5q-55 0 -88 32.5t-33 85.5zM160 0v1038h202v-1038h-202zM358 1335q0 53 33 85t90 32q55 0 88 -31.5t33 -85.5q0 -53 -33 -85.5t-88 -32.5q-57 0 -90 32.5t-33 85.5z" />
<glyph unicode="&#xf0;" horiz-adv-x="1155" d="M98 481q0 231 123 368.5t330 137.5q221 0 338 -164q-39 152 -109.5 263.5t-169.5 173.5l-198 -183l-80 92l168 150q-100 47 -228 72v159q195 -33 344 -116l183 168l80 -95l-156 -145q164 -127 249 -325.5t85 -452.5q0 -614 -477 -615q-225 0 -353.5 136.5t-128.5 375.5z M301 481q0 -174 68.5 -265t205.5 -91q141 0 215 91t74 263t-74.5 264.5t-214.5 92.5q-274 0 -274 -355z" />
<glyph unicode="&#xf1;" horiz-adv-x="1204" d="M152 0v1038h170l20 -114q195 145 410 145q150 0 227.5 -79t77.5 -228v-762h-203v694q0 109 -44 160t-138 51q-162 0 -318 -104v-801h-202zM289 1307q0 90 53.5 142t143.5 52q98 0 176 -76q45 -41 66.5 -54t45.5 -13q57 0 62 82l4 55h123q4 -16 5 -32.5t1 -32.5 q0 -90 -53.5 -142.5t-143.5 -52.5q-98 0 -176 76q-45 41 -66.5 54t-45.5 13q-57 0 -62 -82l-4 -55h-123q-4 16 -5 32.5t-1 33.5z" />
<glyph unicode="&#xf2;" horiz-adv-x="1187" d="M98 520q0 258 131 403.5t365 145.5q233 0 364.5 -145.5t131.5 -403.5q0 -260 -131.5 -405.5t-364.5 -145.5t-364.5 145.5t-131.5 405.5zM252 1559h238l186 -328h-164zM305 520q0 -387 289 -387t289 387q0 385 -289 385t-289 -385z" />
<glyph unicode="&#xf3;" horiz-adv-x="1187" d="M98 520q0 258 131 403.5t365 145.5q233 0 364.5 -145.5t131.5 -403.5q0 -260 -131.5 -405.5t-364.5 -145.5t-364.5 145.5t-131.5 405.5zM305 520q0 -387 289 -387t289 387q0 385 -289 385t-289 -385zM512 1231l186 328h238l-260 -328h-164z" />
<glyph unicode="&#xf4;" horiz-adv-x="1187" d="M98 520q0 258 131 403.5t365 145.5q233 0 364.5 -145.5t131.5 -403.5q0 -260 -131.5 -405.5t-364.5 -145.5t-364.5 145.5t-131.5 405.5zM225 1231l267 330h204l267 -330h-176l-193 211l-193 -211h-176zM305 520q0 -387 289 -387t289 387q0 385 -289 385t-289 -385z" />
<glyph unicode="&#xf5;" horiz-adv-x="1187" d="M98 520q0 258 131 403.5t365 145.5q233 0 364.5 -145.5t131.5 -403.5q0 -260 -131.5 -405.5t-364.5 -145.5t-364.5 145.5t-131.5 405.5zM254 1307q0 90 53.5 142t143.5 52q98 0 176 -76q45 -41 66.5 -54t45.5 -13q57 0 62 82l4 55h123q4 -16 5 -32.5t1 -32.5 q0 -90 -53.5 -142.5t-143.5 -52.5q-98 0 -176 76q-45 41 -66.5 54t-45.5 13q-57 0 -62 -82l-4 -55h-123q-4 16 -5 32.5t-1 33.5zM305 520q0 -387 289 -387t289 387q0 385 -289 385t-289 -385z" />
<glyph unicode="&#xf6;" horiz-adv-x="1187" d="M98 520q0 258 131 403.5t365 145.5q233 0 364.5 -145.5t131.5 -403.5q0 -260 -131.5 -405.5t-364.5 -145.5t-364.5 145.5t-131.5 405.5zM252 1335q0 53 33 85t88 32q57 0 90 -31.5t33 -85.5q0 -53 -33 -85.5t-90 -32.5q-55 0 -88 32.5t-33 85.5zM305 520q0 -387 289 -387 t289 387q0 385 -289 385t-289 -385zM692 1335q0 53 33 85t90 32q55 0 88 -31.5t33 -85.5q0 -53 -33 -85.5t-88 -32.5q-57 0 -90 32.5t-33 85.5z" />
<glyph unicode="&#xf7;" d="M137 631v164h926v-164h-926zM481 344q0 53 33 87t86 34t86 -33t33 -88q0 -51 -33 -85t-86 -34q-51 0 -85 34t-34 85zM481 1079q0 53 33 87t86 34t86 -33.5t33 -87.5q0 -53 -33 -85.5t-86 -32.5q-51 0 -85 33.5t-34 84.5z" />
<glyph unicode="&#xf8;" horiz-adv-x="1187" d="M98 520q0 258 131 403.5t365 145.5q174 0 293 -84l94 119l100 -82l-100 -127q109 -143 109 -375q0 -260 -131.5 -405.5t-364.5 -145.5q-170 0 -291 80l-92 -117l-100 82l98 123q-111 145 -111 383zM305 520q0 -133 35 -221l434 547q-70 59 -180 59q-289 0 -289 -385z M416 188q67 -55 178 -55q289 0 289 387q0 121 -33 213z" />
<glyph unicode="&#xf9;" horiz-adv-x="1177" d="M143 283v755h203v-690q0 -111 43 -163t137 -52q147 0 297 98v807h203v-1038h-168l-22 111q-190 -141 -392 -142q-145 0 -223 82t-78 232zM242 1559h238l186 -328h-164z" />
<glyph unicode="&#xfa;" horiz-adv-x="1177" d="M143 283v755h203v-690q0 -111 43 -163t137 -52q147 0 297 98v807h203v-1038h-168l-22 111q-190 -141 -392 -142q-145 0 -223 82t-78 232zM502 1231l186 328h238l-260 -328h-164z" />
<glyph unicode="&#xfb;" horiz-adv-x="1177" d="M143 283v755h203v-690q0 -111 43 -163t137 -52q147 0 297 98v807h203v-1038h-168l-22 111q-190 -141 -392 -142q-145 0 -223 82t-78 232zM215 1231l267 330h204l267 -330h-176l-193 211l-193 -211h-176z" />
<glyph unicode="&#xfc;" horiz-adv-x="1177" d="M143 283v755h203v-690q0 -111 43 -163t137 -52q147 0 297 98v807h203v-1038h-168l-22 111q-190 -141 -392 -142q-145 0 -223 82t-78 232zM242 1335q0 53 33 85t88 32q57 0 90 -31.5t33 -85.5q0 -53 -33 -85.5t-90 -32.5q-55 0 -88 32.5t-33 85.5zM682 1335q0 53 33 85 t90 32q55 0 88 -31.5t33 -85.5q0 -53 -33 -85.5t-88 -32.5q-57 0 -90 32.5t-33 85.5z" />
<glyph unicode="&#xfd;" horiz-adv-x="1042" d="M14 1038h217l299 -850l289 850h209l-473 -1220q-53 -141 -128 -202.5t-189 -61.5q-86 0 -160 28v146q55 -14 117 -15q76 0 119.5 38t78.5 134l39 105zM438 1231l186 328h238l-260 -328h-164z" />
<glyph unicode="&#xfe;" horiz-adv-x="1212" d="M152 -422v1938h202v-576q154 129 332 129q199 0 313.5 -143.5t114.5 -393.5q0 -252 -121 -403.5t-321 -151.5q-182 0 -318 123v-522h-202zM354 240q129 -98 271 -99q283 0 282 381q0 195 -68.5 289t-209.5 94q-145 0 -275 -94v-571z" />
<glyph unicode="&#xff;" horiz-adv-x="1042" d="M14 1038h217l299 -850l289 850h209l-473 -1220q-53 -141 -128 -202.5t-189 -61.5q-86 0 -160 28v146q55 -14 117 -15q76 0 119.5 38t78.5 134l39 105zM178 1335q0 53 33 85t88 32q57 0 90 -31.5t33 -85.5q0 -53 -33 -85.5t-90 -32.5q-55 0 -88 32.5t-33 85.5zM618 1335 q0 53 33 85t90 32q55 0 88 -31.5t33 -85.5q0 -53 -33 -85.5t-88 -32.5q-57 0 -90 32.5t-33 85.5z" />
<glyph unicode="&#x152;" horiz-adv-x="2181" d="M131 709q0 223 76 390t220 259t345 92q143 0 259 -57.5t194 -167.5v194h862v-168h-666v-436h557v-168h-557v-479h666v-168h-862v190q-78 -111 -194 -168t-259 -57q-195 0 -339 88t-223 256.5t-79 399.5zM346 709q0 -279 112.5 -423.5t327.5 -144.5q213 0 326 146.5 t113 421.5q0 274 -113 419.5t-326 145.5q-215 0 -327.5 -144.5t-112.5 -420.5z" />
<glyph unicode="&#x153;" horiz-adv-x="1855" d="M98 520q0 258 129 403.5t357 145.5q139 0 237.5 -59.5t151.5 -173.5q53 115 152.5 174t240.5 59q190 0 293.5 -108.5t103.5 -311.5q0 -98 -14 -174h-678q4 -176 88 -260t258 -84q160 0 326 64v-146q-70 -39 -162 -59.5t-192 -20.5q-309 0 -418 234q-104 -233 -387 -234 q-227 0 -356.5 145.5t-129.5 405.5zM305 520q0 -387 291 -387q279 0 278 387q0 385 -278 385q-291 0 -291 -385zM1071 610h512v54q0 125 -57 188t-170 63q-131 0 -204 -77.5t-81 -227.5z" />
<glyph unicode="&#x178;" horiz-adv-x="1236" d="M29 1419h231l358 -727l365 727h225l-491 -901v-518h-205v522zM279 1714q0 53 34 86t91 33q55 0 90 -33t35 -86t-34 -86t-91 -33q-55 0 -90 33t-35 86zM713 1714q0 53 34 86t91 33q55 0 90 -33t35 -86t-34 -86t-91 -33q-55 0 -90 33t-35 86z" />
<glyph unicode="&#x2c6;" horiz-adv-x="1204" d="M233 1231l267 330h204l267 -330h-176l-193 211l-193 -211h-176z" />
<glyph unicode="&#x2dc;" horiz-adv-x="1204" d="M262 1307q0 90 53.5 142t143.5 52q98 0 176 -76q45 -41 66.5 -54t45.5 -13q57 0 62 82l4 55h123q4 -16 5 -32.5t1 -32.5q0 -90 -53.5 -142.5t-143.5 -52.5q-98 0 -176 76q-45 41 -66.5 54t-45.5 13q-57 0 -62 -82l-4 -55h-123q-4 16 -5 32.5t-1 33.5z" />
<glyph unicode="&#x2000;" horiz-adv-x="955" />
<glyph unicode="&#x2001;" horiz-adv-x="1911" />
<glyph unicode="&#x2002;" horiz-adv-x="955" />
<glyph unicode="&#x2003;" horiz-adv-x="1911" />
<glyph unicode="&#x2004;" horiz-adv-x="637" />
<glyph unicode="&#x2005;" horiz-adv-x="477" />
<glyph unicode="&#x2006;" horiz-adv-x="318" />
<glyph unicode="&#x2007;" horiz-adv-x="318" />
<glyph unicode="&#x2008;" horiz-adv-x="238" />
<glyph unicode="&#x2009;" horiz-adv-x="382" />
<glyph unicode="&#x200a;" horiz-adv-x="106" />
<glyph unicode="&#x2010;" horiz-adv-x="798" d="M94 444v172h611v-172h-611z" />
<glyph unicode="&#x2011;" horiz-adv-x="798" d="M94 444v172h611v-172h-611z" />
<glyph unicode="&#x2012;" horiz-adv-x="798" d="M94 444v172h611v-172h-611z" />
<glyph unicode="&#x2013;" horiz-adv-x="1024" d="M0 449v164h1024v-164h-1024z" />
<glyph unicode="&#x2014;" horiz-adv-x="2048" d="M0 449v163h2048v-163h-2048z" />
<glyph unicode="&#x2018;" horiz-adv-x="507" d="M115 977q0 35 26 113l113 329h141l-84 -518h-75q-63 0 -92 18.5t-29 57.5z" />
<glyph unicode="&#x2019;" horiz-adv-x="507" d="M113 901l84 518h77q119 0 119 -76q0 -39 -26 -112l-113 -330h-141z" />
<glyph unicode="&#x201a;" horiz-adv-x="507" d="M113 -299l84 518h77q119 0 119 -76q0 -39 -26 -112l-113 -330h-141z" />
<glyph unicode="&#x201c;" horiz-adv-x="866" d="M115 977q0 35 26 113l113 329h141l-84 -518h-75q-63 0 -92 18.5t-29 57.5zM473 977q0 35 26 113l113 329h141l-84 -518h-75q-63 0 -92 18.5t-29 57.5z" />
<glyph unicode="&#x201d;" horiz-adv-x="866" d="M113 901l84 518h77q119 0 119 -76q0 -39 -26 -112l-113 -330h-141zM471 901l84 518h77q119 0 119 -76q0 -39 -26 -112l-113 -330h-141z" />
<glyph unicode="&#x201e;" horiz-adv-x="866" d="M113 -299l84 518h77q119 0 119 -76q0 -39 -26 -112l-113 -330h-141zM471 -299l84 518h77q119 0 119 -76q0 -39 -26 -112l-113 -330h-141z" />
<glyph unicode="&#x2022;" horiz-adv-x="737" d="M90 530q0 119 80 198t199 79t198.5 -79t79.5 -198t-79.5 -198.5t-198.5 -79.5t-199 80t-80 198z" />
<glyph unicode="&#x2026;" horiz-adv-x="2048" d="M209 115q0 59 37 97t96 38t96 -38t37 -97t-37 -97t-96 -38t-96 37.5t-37 97.5zM891 115q0 59 37 97t96 38t96 -38t37 -97t-37 -97t-96 -38t-96 37.5t-37 97.5zM1573 115q0 59 37 97t96 38t96 -38t37 -97t-37 -97t-96 -38t-96 37.5t-37 97.5z" />
<glyph unicode="&#x202f;" horiz-adv-x="382" />
<glyph unicode="&#x2039;" horiz-adv-x="677" d="M94 530l279 426h198l-260 -426l260 -426h-198z" />
<glyph unicode="&#x203a;" horiz-adv-x="677" d="M106 104l261 426l-261 426h199l279 -426l-279 -426h-199z" />
<glyph unicode="&#x205f;" horiz-adv-x="477" />
<glyph unicode="&#x20ac;" d="M68 477v137h141q-2 20 -2 41v41q0 25 1 49.5t3 47.5h-143v137h159q49 248 204 378t400 130q172 0 306 -58v-159q-147 43 -279 43q-358 0 -428 -334h576l-39 -137h-551v-179h512l-39 -137h-459q35 -166 134.5 -246.5t269.5 -80.5q158 0 311 49v-160q-152 -63 -330 -64 q-244 0 -394.5 127t-195.5 375h-157z" />
<glyph unicode="&#x2122;" horiz-adv-x="1710" d="M31 1292v127h649v-127h-246v-659h-158v659h-245zM803 633v786h168l233 -456l234 456h164v-786h-146v557l-182 -363h-144l-182 363v-557h-145z" />
<glyph unicode="&#x25fc;" horiz-adv-x="1034" d="M0 0v1034h1034v-1034h-1034z" />
</font>
</defs>
</svg>
